<mxfile host="app.diagrams.net" modified="2023-05-15T21:05:41.934Z" agent="Mozilla/5.0 (Windows NT 10.0; Win64; x64) AppleWebKit/537.36 (KHTML, like Gecko) Chrome/113.0.0.0 Safari/537.36" etag="InNOZkElYSWE_7mnRbU8" version="21.3.0" type="device">
  <diagram id="R2lEEEUBdFMjLlhIrx00" name="Page-1">
    <mxGraphModel dx="2284" dy="1807" grid="1" gridSize="10" guides="1" tooltips="1" connect="1" arrows="1" fold="1" page="1" pageScale="1" pageWidth="850" pageHeight="1100" math="0" shadow="0" extFonts="Permanent Marker^https://fonts.googleapis.com/css?family=Permanent+Marker">
      <root>
        <mxCell id="0" />
        <mxCell id="1" parent="0" />
        <mxCell id="z9vFr-cPvDHC_2MHpfbu-9" style="edgeStyle=orthogonalEdgeStyle;rounded=0;orthogonalLoop=1;jettySize=auto;html=1;exitX=0.5;exitY=0;exitDx=0;exitDy=0;entryX=0;entryY=0.5;entryDx=0;entryDy=0;" parent="1" source="z9vFr-cPvDHC_2MHpfbu-1" target="z9vFr-cPvDHC_2MHpfbu-4" edge="1">
          <mxGeometry relative="1" as="geometry" />
        </mxCell>
        <mxCell id="z9vFr-cPvDHC_2MHpfbu-10" style="edgeStyle=orthogonalEdgeStyle;rounded=0;orthogonalLoop=1;jettySize=auto;html=1;exitX=0.75;exitY=0;exitDx=0;exitDy=0;entryX=0;entryY=0.5;entryDx=0;entryDy=0;" parent="1" source="z9vFr-cPvDHC_2MHpfbu-1" target="z9vFr-cPvDHC_2MHpfbu-7" edge="1">
          <mxGeometry relative="1" as="geometry" />
        </mxCell>
        <mxCell id="z9vFr-cPvDHC_2MHpfbu-11" style="edgeStyle=orthogonalEdgeStyle;rounded=0;orthogonalLoop=1;jettySize=auto;html=1;entryX=0;entryY=0.5;entryDx=0;entryDy=0;" parent="1" source="z9vFr-cPvDHC_2MHpfbu-1" target="z9vFr-cPvDHC_2MHpfbu-2" edge="1">
          <mxGeometry relative="1" as="geometry">
            <Array as="points">
              <mxPoint x="1035" y="370" />
              <mxPoint x="1035" y="255" />
            </Array>
          </mxGeometry>
        </mxCell>
        <mxCell id="z9vFr-cPvDHC_2MHpfbu-12" style="edgeStyle=orthogonalEdgeStyle;rounded=0;orthogonalLoop=1;jettySize=auto;html=1;" parent="1" source="z9vFr-cPvDHC_2MHpfbu-1" target="z9vFr-cPvDHC_2MHpfbu-5" edge="1">
          <mxGeometry relative="1" as="geometry" />
        </mxCell>
        <mxCell id="z9vFr-cPvDHC_2MHpfbu-13" style="edgeStyle=orthogonalEdgeStyle;rounded=0;orthogonalLoop=1;jettySize=auto;html=1;entryX=0;entryY=0.5;entryDx=0;entryDy=0;" parent="1" source="z9vFr-cPvDHC_2MHpfbu-1" target="z9vFr-cPvDHC_2MHpfbu-3" edge="1">
          <mxGeometry relative="1" as="geometry" />
        </mxCell>
        <mxCell id="z9vFr-cPvDHC_2MHpfbu-61" style="edgeStyle=orthogonalEdgeStyle;rounded=0;orthogonalLoop=1;jettySize=auto;html=1;" parent="1" source="z9vFr-cPvDHC_2MHpfbu-1" target="z9vFr-cPvDHC_2MHpfbu-24" edge="1">
          <mxGeometry relative="1" as="geometry" />
        </mxCell>
        <mxCell id="z9vFr-cPvDHC_2MHpfbu-1" value="CLIENTE" style="rounded=0;whiteSpace=wrap;html=1;" parent="1" vertex="1">
          <mxGeometry x="890" y="340" width="120" height="60" as="geometry" />
        </mxCell>
        <mxCell id="z9vFr-cPvDHC_2MHpfbu-2" value="&lt;u&gt;ID_cliente&lt;/u&gt;" style="ellipse;whiteSpace=wrap;html=1;" parent="1" vertex="1">
          <mxGeometry x="1060" y="110" width="70" height="50" as="geometry" />
        </mxCell>
        <mxCell id="z9vFr-cPvDHC_2MHpfbu-3" value="DNI" style="ellipse;whiteSpace=wrap;html=1;" parent="1" vertex="1">
          <mxGeometry x="1060" y="290" width="70" height="50" as="geometry" />
        </mxCell>
        <mxCell id="z9vFr-cPvDHC_2MHpfbu-4" value="Telefono" style="ellipse;whiteSpace=wrap;html=1;" parent="1" vertex="1">
          <mxGeometry x="1060" y="230" width="70" height="50" as="geometry" />
        </mxCell>
        <mxCell id="z9vFr-cPvDHC_2MHpfbu-5" value="Email" style="ellipse;whiteSpace=wrap;html=1;" parent="1" vertex="1">
          <mxGeometry x="1060" y="350" width="70" height="50" as="geometry" />
        </mxCell>
        <mxCell id="z9vFr-cPvDHC_2MHpfbu-7" value="Nombre&lt;br&gt;Apellido" style="ellipse;whiteSpace=wrap;html=1;" parent="1" vertex="1">
          <mxGeometry x="1060" y="170" width="70" height="50" as="geometry" />
        </mxCell>
        <mxCell id="z9vFr-cPvDHC_2MHpfbu-19" style="edgeStyle=orthogonalEdgeStyle;rounded=0;orthogonalLoop=1;jettySize=auto;html=1;" parent="1" source="z9vFr-cPvDHC_2MHpfbu-15" target="z9vFr-cPvDHC_2MHpfbu-18" edge="1">
          <mxGeometry relative="1" as="geometry" />
        </mxCell>
        <mxCell id="z9vFr-cPvDHC_2MHpfbu-20" style="edgeStyle=orthogonalEdgeStyle;rounded=0;orthogonalLoop=1;jettySize=auto;html=1;" parent="1" source="z9vFr-cPvDHC_2MHpfbu-15" target="z9vFr-cPvDHC_2MHpfbu-16" edge="1">
          <mxGeometry relative="1" as="geometry" />
        </mxCell>
        <mxCell id="z9vFr-cPvDHC_2MHpfbu-21" style="edgeStyle=orthogonalEdgeStyle;rounded=0;orthogonalLoop=1;jettySize=auto;html=1;" parent="1" source="z9vFr-cPvDHC_2MHpfbu-15" target="z9vFr-cPvDHC_2MHpfbu-17" edge="1">
          <mxGeometry relative="1" as="geometry" />
        </mxCell>
        <mxCell id="z9vFr-cPvDHC_2MHpfbu-15" value="Formas de pago" style="rounded=0;whiteSpace=wrap;html=1;" parent="1" vertex="1">
          <mxGeometry x="490" y="570" width="120" height="60" as="geometry" />
        </mxCell>
        <mxCell id="z9vFr-cPvDHC_2MHpfbu-16" value="&lt;u&gt;ID_pago&lt;/u&gt;" style="ellipse;whiteSpace=wrap;html=1;" parent="1" vertex="1">
          <mxGeometry x="730" y="650" width="80" height="50" as="geometry" />
        </mxCell>
        <mxCell id="z9vFr-cPvDHC_2MHpfbu-17" value="Efectivo" style="ellipse;whiteSpace=wrap;html=1;" parent="1" vertex="1">
          <mxGeometry x="620" y="670" width="80" height="50" as="geometry" />
        </mxCell>
        <mxCell id="z9vFr-cPvDHC_2MHpfbu-18" value="Tarjeta" style="ellipse;whiteSpace=wrap;html=1;" parent="1" vertex="1">
          <mxGeometry x="520" y="650" width="80" height="50" as="geometry" />
        </mxCell>
        <mxCell id="z9vFr-cPvDHC_2MHpfbu-37" style="edgeStyle=orthogonalEdgeStyle;rounded=0;orthogonalLoop=1;jettySize=auto;html=1;" parent="1" source="z9vFr-cPvDHC_2MHpfbu-24" target="z9vFr-cPvDHC_2MHpfbu-33" edge="1">
          <mxGeometry relative="1" as="geometry" />
        </mxCell>
        <mxCell id="z9vFr-cPvDHC_2MHpfbu-38" value="" style="edgeStyle=orthogonalEdgeStyle;rounded=0;orthogonalLoop=1;jettySize=auto;html=1;" parent="1" source="z9vFr-cPvDHC_2MHpfbu-24" target="z9vFr-cPvDHC_2MHpfbu-29" edge="1">
          <mxGeometry relative="1" as="geometry" />
        </mxCell>
        <mxCell id="z9vFr-cPvDHC_2MHpfbu-40" style="edgeStyle=orthogonalEdgeStyle;rounded=0;orthogonalLoop=1;jettySize=auto;html=1;entryX=0.66;entryY=0.06;entryDx=0;entryDy=0;entryPerimeter=0;" parent="1" source="z9vFr-cPvDHC_2MHpfbu-24" target="z9vFr-cPvDHC_2MHpfbu-34" edge="1">
          <mxGeometry relative="1" as="geometry" />
        </mxCell>
        <mxCell id="z9vFr-cPvDHC_2MHpfbu-41" style="edgeStyle=orthogonalEdgeStyle;rounded=0;orthogonalLoop=1;jettySize=auto;html=1;entryX=1;entryY=1;entryDx=0;entryDy=0;" parent="1" source="z9vFr-cPvDHC_2MHpfbu-24" target="z9vFr-cPvDHC_2MHpfbu-27" edge="1">
          <mxGeometry relative="1" as="geometry">
            <Array as="points">
              <mxPoint x="630" y="254" />
              <mxPoint x="545" y="254" />
            </Array>
          </mxGeometry>
        </mxCell>
        <mxCell id="z9vFr-cPvDHC_2MHpfbu-42" style="edgeStyle=orthogonalEdgeStyle;rounded=0;orthogonalLoop=1;jettySize=auto;html=1;entryX=0.8;entryY=1;entryDx=0;entryDy=0;entryPerimeter=0;" parent="1" source="z9vFr-cPvDHC_2MHpfbu-24" target="z9vFr-cPvDHC_2MHpfbu-26" edge="1">
          <mxGeometry relative="1" as="geometry" />
        </mxCell>
        <mxCell id="z9vFr-cPvDHC_2MHpfbu-43" style="edgeStyle=orthogonalEdgeStyle;rounded=0;orthogonalLoop=1;jettySize=auto;html=1;" parent="1" source="z9vFr-cPvDHC_2MHpfbu-24" target="z9vFr-cPvDHC_2MHpfbu-25" edge="1">
          <mxGeometry relative="1" as="geometry" />
        </mxCell>
        <mxCell id="z9vFr-cPvDHC_2MHpfbu-44" style="edgeStyle=orthogonalEdgeStyle;rounded=0;orthogonalLoop=1;jettySize=auto;html=1;entryX=0;entryY=1;entryDx=0;entryDy=0;" parent="1" source="z9vFr-cPvDHC_2MHpfbu-24" target="z9vFr-cPvDHC_2MHpfbu-31" edge="1">
          <mxGeometry relative="1" as="geometry" />
        </mxCell>
        <mxCell id="z9vFr-cPvDHC_2MHpfbu-45" style="edgeStyle=orthogonalEdgeStyle;rounded=0;orthogonalLoop=1;jettySize=auto;html=1;entryX=0;entryY=0.5;entryDx=0;entryDy=0;" parent="1" source="z9vFr-cPvDHC_2MHpfbu-24" target="z9vFr-cPvDHC_2MHpfbu-32" edge="1">
          <mxGeometry relative="1" as="geometry">
            <Array as="points">
              <mxPoint x="660" y="355" />
            </Array>
          </mxGeometry>
        </mxCell>
        <mxCell id="z9vFr-cPvDHC_2MHpfbu-47" style="edgeStyle=orthogonalEdgeStyle;rounded=0;orthogonalLoop=1;jettySize=auto;html=1;entryX=0;entryY=0.5;entryDx=0;entryDy=0;" parent="1" source="z9vFr-cPvDHC_2MHpfbu-24" target="z9vFr-cPvDHC_2MHpfbu-28" edge="1">
          <mxGeometry relative="1" as="geometry" />
        </mxCell>
        <mxCell id="z9vFr-cPvDHC_2MHpfbu-24" value="Viaje" style="rhombus;whiteSpace=wrap;html=1;" parent="1" vertex="1">
          <mxGeometry x="480" y="180" width="210" height="80" as="geometry" />
        </mxCell>
        <mxCell id="z9vFr-cPvDHC_2MHpfbu-25" value="&lt;u&gt;ID_viaje&lt;/u&gt;" style="ellipse;whiteSpace=wrap;html=1;" parent="1" vertex="1">
          <mxGeometry x="560" y="70" width="100" height="50" as="geometry" />
        </mxCell>
        <mxCell id="z9vFr-cPvDHC_2MHpfbu-26" value="Punto inicio viaje" style="ellipse;whiteSpace=wrap;html=1;" parent="1" vertex="1">
          <mxGeometry x="720" y="30" width="100" height="50" as="geometry" />
        </mxCell>
        <mxCell id="z9vFr-cPvDHC_2MHpfbu-27" value="Destino final" style="ellipse;whiteSpace=wrap;html=1;" parent="1" vertex="1">
          <mxGeometry x="430" y="70" width="100" height="50" as="geometry" />
        </mxCell>
        <mxCell id="z9vFr-cPvDHC_2MHpfbu-28" value="Horario inicio&amp;nbsp;" style="ellipse;whiteSpace=wrap;html=1;" parent="1" vertex="1">
          <mxGeometry x="670" y="80" width="100" height="50" as="geometry" />
        </mxCell>
        <mxCell id="z9vFr-cPvDHC_2MHpfbu-29" value="Distancia" style="ellipse;whiteSpace=wrap;html=1;" parent="1" vertex="1">
          <mxGeometry x="700" y="190" width="100" height="50" as="geometry" />
        </mxCell>
        <mxCell id="z9vFr-cPvDHC_2MHpfbu-31" value="Duracion" style="ellipse;whiteSpace=wrap;html=1;" parent="1" vertex="1">
          <mxGeometry x="800" y="130" width="100" height="50" as="geometry" />
        </mxCell>
        <mxCell id="z9vFr-cPvDHC_2MHpfbu-32" value="Tarifa&amp;nbsp;" style="ellipse;whiteSpace=wrap;html=1;" parent="1" vertex="1">
          <mxGeometry x="720" y="270" width="100" height="50" as="geometry" />
        </mxCell>
        <mxCell id="z9vFr-cPvDHC_2MHpfbu-33" value="Calificacion" style="ellipse;whiteSpace=wrap;html=1;" parent="1" vertex="1">
          <mxGeometry x="410" y="140" width="100" height="50" as="geometry" />
        </mxCell>
        <mxCell id="z9vFr-cPvDHC_2MHpfbu-34" value="Forma de pago" style="ellipse;whiteSpace=wrap;html=1;" parent="1" vertex="1">
          <mxGeometry x="440" y="-10" width="165" height="50" as="geometry" />
        </mxCell>
        <mxCell id="z9vFr-cPvDHC_2MHpfbu-56" style="edgeStyle=orthogonalEdgeStyle;rounded=0;orthogonalLoop=1;jettySize=auto;html=1;" parent="1" source="z9vFr-cPvDHC_2MHpfbu-50" target="z9vFr-cPvDHC_2MHpfbu-52" edge="1">
          <mxGeometry relative="1" as="geometry" />
        </mxCell>
        <mxCell id="z9vFr-cPvDHC_2MHpfbu-57" style="edgeStyle=orthogonalEdgeStyle;rounded=0;orthogonalLoop=1;jettySize=auto;html=1;entryX=0;entryY=1;entryDx=0;entryDy=0;" parent="1" source="z9vFr-cPvDHC_2MHpfbu-50" target="z9vFr-cPvDHC_2MHpfbu-53" edge="1">
          <mxGeometry relative="1" as="geometry" />
        </mxCell>
        <mxCell id="z9vFr-cPvDHC_2MHpfbu-58" style="edgeStyle=orthogonalEdgeStyle;rounded=0;orthogonalLoop=1;jettySize=auto;html=1;" parent="1" source="z9vFr-cPvDHC_2MHpfbu-50" target="z9vFr-cPvDHC_2MHpfbu-55" edge="1">
          <mxGeometry relative="1" as="geometry" />
        </mxCell>
        <mxCell id="z9vFr-cPvDHC_2MHpfbu-59" style="edgeStyle=orthogonalEdgeStyle;rounded=0;orthogonalLoop=1;jettySize=auto;html=1;" parent="1" source="z9vFr-cPvDHC_2MHpfbu-50" target="z9vFr-cPvDHC_2MHpfbu-54" edge="1">
          <mxGeometry relative="1" as="geometry" />
        </mxCell>
        <mxCell id="z9vFr-cPvDHC_2MHpfbu-60" style="edgeStyle=orthogonalEdgeStyle;rounded=0;orthogonalLoop=1;jettySize=auto;html=1;" parent="1" source="z9vFr-cPvDHC_2MHpfbu-50" target="z9vFr-cPvDHC_2MHpfbu-24" edge="1">
          <mxGeometry relative="1" as="geometry" />
        </mxCell>
        <mxCell id="z9vFr-cPvDHC_2MHpfbu-50" value="Conductor" style="rounded=0;whiteSpace=wrap;html=1;" parent="1" vertex="1">
          <mxGeometry x="60" y="210" width="120" height="60" as="geometry" />
        </mxCell>
        <mxCell id="z9vFr-cPvDHC_2MHpfbu-52" value="&lt;u&gt;ID_conductor&lt;/u&gt;" style="ellipse;whiteSpace=wrap;html=1;" parent="1" vertex="1">
          <mxGeometry x="-20" y="80" width="110" height="60" as="geometry" />
        </mxCell>
        <mxCell id="z9vFr-cPvDHC_2MHpfbu-53" value="Patente auto" style="ellipse;whiteSpace=wrap;html=1;" parent="1" vertex="1">
          <mxGeometry x="140" y="90" width="110" height="60" as="geometry" />
        </mxCell>
        <mxCell id="z9vFr-cPvDHC_2MHpfbu-54" value="Puntaje&amp;nbsp;" style="ellipse;whiteSpace=wrap;html=1;" parent="1" vertex="1">
          <mxGeometry x="-80" y="270" width="110" height="60" as="geometry" />
        </mxCell>
        <mxCell id="z9vFr-cPvDHC_2MHpfbu-55" value="modelo auto" style="ellipse;whiteSpace=wrap;html=1;" parent="1" vertex="1">
          <mxGeometry x="-80" y="170" width="110" height="60" as="geometry" />
        </mxCell>
        <mxCell id="z9vFr-cPvDHC_2MHpfbu-63" value="&lt;b style=&quot;border-color: var(--border-color);&quot;&gt;&lt;font style=&quot;border-color: var(--border-color); font-size: 19px;&quot;&gt;&lt;b style=&quot;border-color: var(--border-color); font-size: 12px;&quot;&gt;&lt;font style=&quot;border-color: var(--border-color); font-size: 19px;&quot;&gt;1&lt;/font&gt;&lt;/b&gt;&lt;/font&gt;&lt;/b&gt;" style="text;strokeColor=none;fillColor=none;spacingLeft=4;spacingRight=4;overflow=hidden;rotatable=0;points=[[0,0.5],[1,0.5]];portConstraint=eastwest;fontSize=12;whiteSpace=wrap;html=1;" parent="1" vertex="1">
          <mxGeometry x="180" y="210" width="40" height="30" as="geometry" />
        </mxCell>
        <mxCell id="z9vFr-cPvDHC_2MHpfbu-64" value="&lt;b&gt;&lt;font style=&quot;font-size: 16px;&quot;&gt;N&lt;/font&gt;&lt;/b&gt;" style="text;strokeColor=none;fillColor=none;spacingLeft=4;spacingRight=4;overflow=hidden;rotatable=0;points=[[0,0.5],[1,0.5]];portConstraint=eastwest;fontSize=12;whiteSpace=wrap;html=1;" parent="1" vertex="1">
          <mxGeometry x="440" y="190" width="40" height="30" as="geometry" />
        </mxCell>
        <mxCell id="z9vFr-cPvDHC_2MHpfbu-65" value="&lt;b&gt;&lt;font style=&quot;font-size: 16px;&quot;&gt;1&lt;/font&gt;&lt;/b&gt;" style="text;strokeColor=none;fillColor=none;spacingLeft=4;spacingRight=4;overflow=hidden;rotatable=0;points=[[0,0.5],[1,0.5]];portConstraint=eastwest;fontSize=12;whiteSpace=wrap;html=1;" parent="1" vertex="1">
          <mxGeometry x="850" y="340" width="40" height="30" as="geometry" />
        </mxCell>
        <mxCell id="z9vFr-cPvDHC_2MHpfbu-66" value="&lt;b&gt;&lt;font style=&quot;font-size: 16px;&quot;&gt;N&lt;/font&gt;&lt;/b&gt;" style="text;strokeColor=none;fillColor=none;spacingLeft=4;spacingRight=4;overflow=hidden;rotatable=0;points=[[0,0.5],[1,0.5]];portConstraint=eastwest;fontSize=12;whiteSpace=wrap;html=1;" parent="1" vertex="1">
          <mxGeometry x="580" y="260" width="40" height="30" as="geometry" />
        </mxCell>
        <mxCell id="6vsdofQR6Peo3GOcaEsM-1" value="" style="endArrow=classic;html=1;rounded=0;exitX=0.1;exitY=0.017;exitDx=0;exitDy=0;exitPerimeter=0;entryX=0;entryY=1;entryDx=0;entryDy=0;" edge="1" parent="1" source="z9vFr-cPvDHC_2MHpfbu-15" target="z9vFr-cPvDHC_2MHpfbu-24">
          <mxGeometry width="50" height="50" relative="1" as="geometry">
            <mxPoint x="590" y="350" as="sourcePoint" />
            <mxPoint x="640" y="300" as="targetPoint" />
          </mxGeometry>
        </mxCell>
        <mxCell id="6vsdofQR6Peo3GOcaEsM-4" value="Calificacion" style="rounded=0;whiteSpace=wrap;html=1;" vertex="1" parent="1">
          <mxGeometry x="480" y="-230" width="120" height="60" as="geometry" />
        </mxCell>
        <mxCell id="6vsdofQR6Peo3GOcaEsM-5" value="ID_calificacion" style="ellipse;whiteSpace=wrap;html=1;" vertex="1" parent="1">
          <mxGeometry x="330" y="-220" width="80" height="50" as="geometry" />
        </mxCell>
        <mxCell id="6vsdofQR6Peo3GOcaEsM-6" value="calificacion" style="ellipse;whiteSpace=wrap;html=1;" vertex="1" parent="1">
          <mxGeometry x="670" y="-220" width="80" height="50" as="geometry" />
        </mxCell>
        <mxCell id="6vsdofQR6Peo3GOcaEsM-8" value="" style="endArrow=classic;html=1;rounded=0;entryX=1;entryY=0.5;entryDx=0;entryDy=0;exitX=0;exitY=0.5;exitDx=0;exitDy=0;" edge="1" parent="1" source="6vsdofQR6Peo3GOcaEsM-4" target="6vsdofQR6Peo3GOcaEsM-5">
          <mxGeometry width="50" height="50" relative="1" as="geometry">
            <mxPoint x="590" y="20" as="sourcePoint" />
            <mxPoint x="640" y="-30" as="targetPoint" />
          </mxGeometry>
        </mxCell>
        <mxCell id="6vsdofQR6Peo3GOcaEsM-9" value="" style="endArrow=classic;html=1;rounded=0;entryX=0;entryY=0.5;entryDx=0;entryDy=0;exitX=1;exitY=0.5;exitDx=0;exitDy=0;" edge="1" parent="1" source="6vsdofQR6Peo3GOcaEsM-4" target="6vsdofQR6Peo3GOcaEsM-6">
          <mxGeometry width="50" height="50" relative="1" as="geometry">
            <mxPoint x="635" y="-130" as="sourcePoint" />
            <mxPoint x="565" y="-125" as="targetPoint" />
          </mxGeometry>
        </mxCell>
        <mxCell id="6vsdofQR6Peo3GOcaEsM-10" value="" style="endArrow=classic;startArrow=classic;html=1;rounded=0;entryX=0;entryY=1;entryDx=0;entryDy=0;exitX=0.025;exitY=0.067;exitDx=0;exitDy=0;exitPerimeter=0;" edge="1" parent="1" source="z9vFr-cPvDHC_2MHpfbu-63" target="6vsdofQR6Peo3GOcaEsM-4">
          <mxGeometry width="50" height="50" relative="1" as="geometry">
            <mxPoint x="590" y="20" as="sourcePoint" />
            <mxPoint x="640" y="-30" as="targetPoint" />
          </mxGeometry>
        </mxCell>
        <mxCell id="6vsdofQR6Peo3GOcaEsM-11" value="" style="endArrow=classic;startArrow=classic;html=1;rounded=0;entryX=1;entryY=1;entryDx=0;entryDy=0;exitX=0.333;exitY=0;exitDx=0;exitDy=0;exitPerimeter=0;" edge="1" parent="1" source="z9vFr-cPvDHC_2MHpfbu-1" target="6vsdofQR6Peo3GOcaEsM-4">
          <mxGeometry width="50" height="50" relative="1" as="geometry">
            <mxPoint x="191" y="222" as="sourcePoint" />
            <mxPoint x="490" y="-160" as="targetPoint" />
            <Array as="points">
              <mxPoint x="920" />
            </Array>
          </mxGeometry>
        </mxCell>
        <mxCell id="6vsdofQR6Peo3GOcaEsM-12" value="&lt;b&gt;&lt;font style=&quot;font-size: 16px;&quot;&gt;N&lt;/font&gt;&lt;/b&gt;" style="text;strokeColor=none;fillColor=none;spacingLeft=4;spacingRight=4;overflow=hidden;rotatable=0;points=[[0,0.5],[1,0.5]];portConstraint=eastwest;fontSize=12;whiteSpace=wrap;html=1;" vertex="1" parent="1">
          <mxGeometry x="425" y="-170" width="40" height="30" as="geometry" />
        </mxCell>
        <mxCell id="6vsdofQR6Peo3GOcaEsM-13" value="&lt;b&gt;&lt;font style=&quot;font-size: 16px;&quot;&gt;N&lt;/font&gt;&lt;/b&gt;" style="text;strokeColor=none;fillColor=none;spacingLeft=4;spacingRight=4;overflow=hidden;rotatable=0;points=[[0,0.5],[1,0.5]];portConstraint=eastwest;fontSize=12;whiteSpace=wrap;html=1;" vertex="1" parent="1">
          <mxGeometry x="175" y="170" width="40" height="30" as="geometry" />
        </mxCell>
        <mxCell id="6vsdofQR6Peo3GOcaEsM-14" value="&lt;b&gt;&lt;font style=&quot;font-size: 16px;&quot;&gt;N&lt;/font&gt;&lt;/b&gt;" style="text;strokeColor=none;fillColor=none;spacingLeft=4;spacingRight=4;overflow=hidden;rotatable=0;points=[[0,0.5],[1,0.5]];portConstraint=eastwest;fontSize=12;whiteSpace=wrap;html=1;" vertex="1" parent="1">
          <mxGeometry x="610" y="-190" width="40" height="30" as="geometry" />
        </mxCell>
        <mxCell id="6vsdofQR6Peo3GOcaEsM-15" value="&lt;b&gt;&lt;font style=&quot;font-size: 16px;&quot;&gt;N&lt;/font&gt;&lt;/b&gt;" style="text;strokeColor=none;fillColor=none;spacingLeft=4;spacingRight=4;overflow=hidden;rotatable=0;points=[[0,0.5],[1,0.5]];portConstraint=eastwest;fontSize=12;whiteSpace=wrap;html=1;" vertex="1" parent="1">
          <mxGeometry x="900" y="290" width="40" height="30" as="geometry" />
        </mxCell>
        <mxCell id="6vsdofQR6Peo3GOcaEsM-16" value="&lt;b&gt;&lt;font style=&quot;font-size: 16px;&quot;&gt;N&lt;/font&gt;&lt;/b&gt;" style="text;strokeColor=none;fillColor=none;spacingLeft=4;spacingRight=4;overflow=hidden;rotatable=0;points=[[0,0.5],[1,0.5]];portConstraint=eastwest;fontSize=12;whiteSpace=wrap;html=1;" vertex="1" parent="1">
          <mxGeometry x="502.5" y="260" width="40" height="30" as="geometry" />
        </mxCell>
        <mxCell id="6vsdofQR6Peo3GOcaEsM-17" value="&lt;b style=&quot;border-color: var(--border-color);&quot;&gt;&lt;font style=&quot;border-color: var(--border-color); font-size: 19px;&quot;&gt;&lt;b style=&quot;border-color: var(--border-color); font-size: 12px;&quot;&gt;&lt;font style=&quot;border-color: var(--border-color); font-size: 19px;&quot;&gt;1&lt;/font&gt;&lt;/b&gt;&lt;/font&gt;&lt;/b&gt;" style="text;strokeColor=none;fillColor=none;spacingLeft=4;spacingRight=4;overflow=hidden;rotatable=0;points=[[0,0.5],[1,0.5]];portConstraint=eastwest;fontSize=12;whiteSpace=wrap;html=1;" vertex="1" parent="1">
          <mxGeometry x="480" y="530" width="40" height="30" as="geometry" />
        </mxCell>
      </root>
    </mxGraphModel>
  </diagram>
</mxfile>
